<svg width="17" height="17" viewBox="0 0 17 17" fill="none" xmlns="http://www.w3.org/2000/svg">
<path d="M17 13.2285C17 13.8402 16.6557 15.0181 15.8821 15.6651C15.7274 15.7829 15.5727 15.7164 15.6407 15.5448C15.8659 14.9996 16.3811 13.7384 16.1397 13.4481C15.9688 13.2277 15.2632 13.2445 14.6613 13.295C14.3867 13.3295 14.1453 13.3455 13.9583 13.3833C13.7849 13.3968 13.75 13.2462 13.9234 13.1284C14.1493 12.9706 14.3989 12.8491 14.663 12.7683C15.6407 12.4789 16.7705 12.653 16.9328 12.8381C16.9634 12.8735 17 12.9736 17 13.2285ZM15.3661 14.3172C15.1419 14.4869 14.9064 14.6415 14.6613 14.78C12.8574 15.8527 10.5204 16.4147 8.49121 16.4147C5.22422 16.4147 2.30237 15.2225 0.0852743 13.2277C-0.105151 13.0746 0.0521199 12.8524 0.27485 12.9728C2.66367 14.3526 5.62037 15.1872 8.68078 15.1872C10.6071 15.1872 12.6831 14.8305 14.6613 14.0632C14.7999 14.0118 14.9546 13.942 15.0898 13.8932C15.4018 13.7544 15.6764 14.0968 15.3661 14.3172ZM10.1209 5.03712C10.1209 4.16128 10.1566 3.64553 9.86329 3.20298C9.60316 2.83867 9.15514 2.61992 8.52946 2.65441C7.85107 2.69143 7.12252 3.13146 6.9372 3.93832C6.90064 4.12342 6.79183 4.30515 6.5657 4.34469L4.49567 4.08387C4.34775 4.05022 4.12247 3.93832 4.19643 3.64553C4.64104 1.33013 6.63966 0.523268 8.53031 0.414734H8.97407C10.0112 0.414734 11.3442 0.708366 12.1969 1.4782C13.2314 2.43398 13.1209 3.71788 13.1209 5.11285V8.41684C13.1209 9.40795 13.5273 9.84714 13.9353 10.3637C14.0459 10.548 14.0841 10.7651 13.8979 10.9148C13.3624 11.3874 12.8191 11.8513 12.2683 12.3064C12.1195 12.4183 11.8526 12.4301 11.7497 12.3443C11.0951 11.8016 10.9353 11.5004 10.5298 10.9493C9.82418 11.6821 9.23166 12.0868 8.52691 12.3064C8.0313 12.4309 7.52161 12.492 7.01031 12.4881C5.23357 12.4881 3.82663 11.3919 3.82663 9.22369C3.82663 7.49976 4.75325 6.32776 6.12194 5.77331C7.49062 5.21802 9.47989 5.04049 10.1209 5.03712ZM9.71537 9.40543C10.1574 8.67177 10.1209 8.07104 10.1209 6.72572C9.5666 6.72572 9.01062 6.76358 8.53031 6.87548C7.64194 7.13041 6.93635 7.68318 6.93635 8.85686C6.93635 9.77394 7.41921 10.3982 8.23362 10.3982C8.34584 10.3982 8.44445 10.3848 8.52946 10.3604C9.09904 10.2039 9.45438 9.92118 9.71537 9.40543Z" fill="black"/>
</svg>
