<svg width="20" height="22" viewBox="0 0 20 22" fill="none" xmlns="http://www.w3.org/2000/svg">
<path d="M19.2659 14.251C18.4182 12.793 17.968 10.7002 17.968 8.20312C17.968 6.02752 17.1038 3.94102 15.5654 2.40264C14.027 0.864255 11.9405 0 9.76489 0C7.58929 0 5.50279 0.864255 3.9644 2.40264C2.42602 3.94102 1.56176 6.02752 1.56176 8.20312C1.56176 10.7012 1.11352 12.793 0.265866 14.251C0.0928983 14.5484 0.00121182 14.886 1.19303e-05 15.23C-0.00118796 15.5741 0.088141 15.9124 0.25903 16.2109C0.428838 16.5097 0.675303 16.7577 0.972983 16.9294C1.27066 17.101 1.60877 17.1901 1.95239 17.1875H5.48559C5.58249 18.2555 6.07525 19.2487 6.86706 19.9719C7.65887 20.6951 8.6925 21.0961 9.76489 21.0961C10.8373 21.0961 11.8709 20.6951 12.6627 19.9719C13.4545 19.2487 13.9473 18.2555 14.0442 17.1875H17.5774C17.9205 17.1896 18.258 17.1003 18.5551 16.9286C18.8522 16.757 19.0983 16.5092 19.2678 16.2109C19.4394 15.9128 19.5296 15.5747 19.5293 15.2307C19.5289 14.8867 19.4381 14.5488 19.2659 14.251ZM9.76489 18.75C9.31463 18.7501 8.87818 18.5946 8.52938 18.3099C8.18059 18.0252 7.94088 17.6287 7.85083 17.1875H11.679C11.5889 17.6287 11.3492 18.0252 11.0004 18.3099C10.6516 18.5946 10.2151 18.7501 9.76489 18.75ZM2.60278 14.8438C3.46704 13.0859 3.90551 10.8535 3.90551 8.20312C3.90551 6.64912 4.52284 5.15877 5.62169 4.05992C6.72053 2.96108 8.21089 2.34375 9.76489 2.34375C11.3189 2.34375 12.8092 2.96108 13.9081 4.05992C15.0069 5.15877 15.6243 6.64912 15.6243 8.20312C15.6243 10.8525 16.0618 13.0859 16.926 14.8438H2.60278Z" fill="black"/>
</svg>
