<svg width="24" height="23" viewBox="0 0 24 23" fill="none" xmlns="http://www.w3.org/2000/svg">
<path d="M1 1.5H3.39566C4.33305 1.5 5.14468 2.15106 5.34803 3.06614L6 6M6 6L7.10424 12.0733C7.62296 14.9263 10.1077 17 13.0075 17H15.7106C18.512 17 20.9406 15.0615 21.5614 12.3297L22.5835 7.83243C22.7969 6.89379 22.0834 6 21.1208 6H6ZM9.5 20.5C9.5 21.0523 9.05228 21.5 8.5 21.5C7.94772 21.5 7.5 21.0523 7.5 20.5C7.5 19.9477 7.94772 19.5 8.5 19.5C9.05228 19.5 9.5 19.9477 9.5 20.5ZM21.5 20.5C21.5 21.0523 21.0523 21.5 20.5 21.5C19.9477 21.5 19.5 21.0523 19.5 20.5C19.5 19.9477 19.9477 19.5 20.5 19.5C21.0523 19.5 21.5 19.9477 21.5 20.5Z" stroke="white" stroke-width="2" stroke-linecap="round"/>
</svg>
