<svg width="17" height="17" viewBox="0 0 17 17" fill="none" xmlns="http://www.w3.org/2000/svg">
<path fill-rule="evenodd" clip-rule="evenodd" d="M15.9383 3.24708C16.2211 2.96827 16.3859 2.59295 16.3964 2.20367C16.4069 1.8144 16.2623 1.44306 15.9944 1.17135C15.7265 0.899643 15.3572 0.74982 14.9678 0.754841C14.5784 0.759861 14.2008 0.919315 13.918 1.19812L8.58722 6.45438L3.53649 1.33198C3.26858 1.06027 2.89932 0.91045 2.50993 0.915471C2.12055 0.920491 1.74294 1.07994 1.46017 1.35875C1.17741 1.63756 1.01265 2.01289 1.00215 2.40216C0.991639 2.79144 1.13625 3.16277 1.40415 3.43448L6.45488 8.55688L1.12405 13.8131C0.841285 14.0919 0.676528 14.4673 0.666022 14.8565C0.655515 15.2458 0.800122 15.6171 1.06803 15.8889C1.33594 16.1606 1.7052 16.3104 2.09458 16.3054C2.48397 16.3003 2.86158 16.1409 3.14434 15.8621L8.47518 10.6058L13.5259 15.7282C13.7938 15.9999 14.1631 16.1498 14.5525 16.1447C14.9418 16.1397 15.3195 15.9803 15.6022 15.7015C15.885 15.4226 16.0497 15.0473 16.0602 14.658C16.0708 14.2688 15.9261 13.8974 15.6582 13.6257L10.6075 8.50333L15.9383 3.24708Z" fill="#FBBA00"/>
</svg>
