<svg width="17" height="20" viewBox="0 0 17 20" fill="none" xmlns="http://www.w3.org/2000/svg">
<path d="M1 10C1 10.5304 1.79018 11.0391 3.1967 11.4142C4.60322 11.7893 6.51088 12 8.5 12C10.4891 12 12.3968 11.7893 13.8033 11.4142C15.2098 11.0391 16 10.5304 16 10M1 10C1 9.46957 1.79018 8.96086 3.1967 8.58579C4.60322 8.21071 6.51088 8 8.5 8C10.4891 8 12.3968 8.21071 13.8033 8.58579C15.2098 8.96086 16 9.46957 16 10M1 10V17C1 17.94 3.35313 18.785 6.625 19V16H10.375V19C13.5953 18.775 16 17.93 16 17V10M11.3125 4H15.0625V1H11.3125V8M3.8125 4H7.5625V1H3.8125V8" stroke="black"/>
</svg>
