<svg width="27" height="27" viewBox="0 0 27 27" fill="none" xmlns="http://www.w3.org/2000/svg">
<g opacity="0.7">
<circle cx="13.5" cy="13.5" r="13.5" fill="#990A2C"/>
<path d="M15.6 7.43995C15.28 7.11995 14.8 7.11995 14.48 7.43995C14.16 7.75995 14.16 8.23995 14.48 8.55995L15.6 7.43995ZM20.4 13.6L20.96 14.16C21.28 13.84 21.28 13.36 20.96 13.04L20.4 13.6ZM14.48 18.64C14.16 18.96 14.16 19.44 14.48 19.76C14.8 20.08 15.28 20.08 15.6 19.76L14.48 18.64ZM19.36 14.4C19.84 14.4 20.16 14.08 20.16 13.6C20.16 13.12 19.84 12.8 19.36 12.8V14.4ZM6.8 12.8C6.32 12.8 6 13.12 6 13.6C6 14.08 6.32 14.4 6.8 14.4V12.8ZM14.48 8.55995L19.84 14.16L20.96 13.04L15.6 7.43995L14.48 8.55995ZM19.84 13.04L14.48 18.64L15.6 19.76L20.96 14.16L19.84 13.04ZM19.36 12.8H6.8V14.4H19.36V12.8Z" fill="#FBBA00"/>
<path d="M15.6 7.43995C15.28 7.11995 14.8 7.11995 14.48 7.43995C14.16 7.75995 14.16 8.23995 14.48 8.55995M15.6 7.43995L14.48 8.55995M15.6 7.43995L20.96 13.04M14.48 8.55995L19.84 14.16L20.96 13.04M20.96 14.16L20.4 13.6L20.96 13.04M20.96 14.16C21.28 13.84 21.28 13.36 20.96 13.04M20.96 14.16L15.6 19.76M20.96 14.16L19.84 13.04L14.48 18.64M14.48 18.64C14.16 18.96 14.16 19.44 14.48 19.76C14.8 20.08 15.28 20.08 15.6 19.76M14.48 18.64L15.6 19.76M19.36 14.4C19.84 14.4 20.16 14.08 20.16 13.6C20.16 13.12 19.84 12.8 19.36 12.8M19.36 14.4V12.8M19.36 14.4H6.8M19.36 12.8H6.8M6.8 12.8C6.32 12.8 6 13.12 6 13.6C6 14.08 6.32 14.4 6.8 14.4M6.8 12.8V14.4" stroke="#FBBA00"/>
</g>
</svg>
