<svg width="19" height="15" viewBox="0 0 19 15" fill="none" xmlns="http://www.w3.org/2000/svg">
<path d="M7.32756 0.40359C7.5611 0.672648 7.67321 0.997761 7.66386 1.37893C7.65452 1.76009 7.53269 2.0852 7.29836 2.35426L3.99951 6.15471L17.0198 6.15471C17.3506 6.15471 17.6281 6.28386 17.8524 6.54215C18.0766 6.80045 18.1883 7.11973 18.1875 7.5C18.1875 7.88117 18.0754 8.2009 17.8512 8.45919C17.627 8.71749 17.3498 8.84619 17.0198 8.84529L3.99951 8.84529L7.32756 12.6794C7.5611 12.9484 7.67788 13.2682 7.67788 13.6386C7.67788 14.009 7.5611 14.3283 7.32756 14.5964C7.09401 14.8655 6.81648 15 6.49496 15C6.17345 15 5.8963 14.8655 5.66354 14.5964L0.321147 8.44171C0.204374 8.30718 0.121463 8.16144 0.0724176 8.00449C0.0233739 7.84754 -0.000759765 7.67937 1.84178e-05 7.5C1.84021e-05 7.32063 0.0245431 7.15247 0.0735867 6.99552C0.122632 6.83857 0.205152 6.69283 0.321147 6.5583L5.69273 0.369959C5.90681 0.123322 6.17422 1.05023e-06 6.49496 1.02219e-06C6.8157 9.94154e-07 7.09323 0.134532 7.32756 0.40359Z" fill="white"/>
</svg>
