<svg width="15" height="15" viewBox="0 0 15 15" fill="none" xmlns="http://www.w3.org/2000/svg">
<path d="M14.9929 7.6403C14.9929 7.02576 14.9418 6.5773 14.8314 6.11224H7.64941V8.88598H11.8651C11.7801 9.5753 11.3211 10.6134 10.3012 11.3109L10.2869 11.4038L12.5577 13.1227L12.715 13.138C14.1599 11.8342 14.9929 9.91577 14.9929 7.6403Z" fill="#4285F4"/>
<path d="M7.64941 14.9484C9.71473 14.9484 11.4486 14.284 12.715 13.138L10.3012 11.3109C9.65525 11.7511 8.7883 12.0584 7.64941 12.0584C5.62658 12.0584 3.90973 10.7546 3.29771 8.95245L3.20801 8.9599L0.846797 10.7454L0.815918 10.8293C2.07381 13.2709 4.65762 14.9484 7.64941 14.9484Z" fill="#34A853"/>
<path d="M3.29771 8.9525C3.13623 8.48744 3.04277 7.98912 3.04277 7.47425C3.04277 6.95933 3.13623 6.46107 3.28922 5.99601L3.28494 5.89696L0.894141 4.08276L0.815918 4.11912C0.29748 5.13231 0 6.27007 0 7.47425C0 8.67843 0.29748 9.81614 0.815918 10.8293L3.29771 8.9525Z" fill="#FBBC05"/>
<path d="M7.64941 2.89002C9.08578 2.89002 10.0547 3.49626 10.6072 4.00288L12.766 1.9433C11.4401 0.739122 9.71473 0 7.64941 0C4.65762 0 2.07381 1.67754 0.815918 4.1191L3.28922 5.99599C3.90973 4.19387 5.62658 2.89002 7.64941 2.89002Z" fill="#EB4335"/>
</svg>
