<svg width="26" height="25" viewBox="0 0 26 25" fill="none" xmlns="http://www.w3.org/2000/svg">
<g opacity="0.7">
<path d="M7.32552 0H17.9349C21.9766 0 25.2604 3.25 25.2604 7.25V17.75C25.2604 19.6728 24.4886 21.5169 23.1148 22.8765C21.741 24.2362 19.8777 25 17.9349 25H7.32552C3.28385 25 0 21.75 0 17.75V7.25C0 5.32718 0.771794 3.48311 2.1456 2.12348C3.5194 0.763837 5.38267 0 7.32552 0ZM7.07292 2.5C5.86701 2.5 4.71049 2.97411 3.85779 3.81802C3.00509 4.66193 2.52604 5.80653 2.52604 7V18C2.52604 20.4875 4.5595 22.5 7.07292 22.5H18.1875C19.3934 22.5 20.5499 22.0259 21.4026 21.182C22.2553 20.3381 22.7344 19.1935 22.7344 18V7C22.7344 4.5125 20.7009 2.5 18.1875 2.5H7.07292ZM19.2611 4.375C19.6798 4.375 20.0814 4.53962 20.3774 4.83265C20.6735 5.12567 20.8398 5.5231 20.8398 5.9375C20.8398 6.3519 20.6735 6.74933 20.3774 7.04235C20.0814 7.33538 19.6798 7.5 19.2611 7.5C18.8424 7.5 18.4408 7.33538 18.1447 7.04235C17.8486 6.74933 17.6823 6.3519 17.6823 5.9375C17.6823 5.5231 17.8486 5.12567 18.1447 4.83265C18.4408 4.53962 18.8424 4.375 19.2611 4.375ZM12.6302 6.25C14.3051 6.25 15.9113 6.90848 17.0957 8.08058C18.28 9.25268 18.9453 10.8424 18.9453 12.5C18.9453 14.1576 18.28 15.7473 17.0957 16.9194C15.9113 18.0915 14.3051 18.75 12.6302 18.75C10.9553 18.75 9.34907 18.0915 8.16475 16.9194C6.98044 15.7473 6.3151 14.1576 6.3151 12.5C6.3151 10.8424 6.98044 9.25268 8.16475 8.08058C9.34907 6.90848 10.9553 6.25 12.6302 6.25ZM12.6302 8.75C11.6253 8.75 10.6615 9.14509 9.95094 9.84835C9.24035 10.5516 8.84115 11.5054 8.84115 12.5C8.84115 13.4946 9.24035 14.4484 9.95094 15.1517C10.6615 15.8549 11.6253 16.25 12.6302 16.25C13.6351 16.25 14.5989 15.8549 15.3095 15.1517C16.0201 14.4484 16.4193 13.4946 16.4193 12.5C16.4193 11.5054 16.0201 10.5516 15.3095 9.84835C14.5989 9.14509 13.6351 8.75 12.6302 8.75Z" fill="white"/>
</g>
</svg>
