<svg width="25" height="24" viewBox="0 0 25 24" fill="none" xmlns="http://www.w3.org/2000/svg">
<g opacity="0.7">
<path d="M21.5556 0C22.2702 0 22.9555 0.280951 23.4608 0.781048C23.9661 1.28115 24.25 1.95942 24.25 2.66667V21.3333C24.25 22.0406 23.9661 22.7189 23.4608 23.219C22.9555 23.719 22.2702 24 21.5556 24H2.69444C1.97983 24 1.29449 23.719 0.789184 23.219C0.283878 22.7189 0 22.0406 0 21.3333V2.66667C0 1.95942 0.283878 1.28115 0.789184 0.781048C1.29449 0.280951 1.97983 0 2.69444 0H21.5556ZM20.8819 20.6667V13.6C20.8819 12.4472 20.4192 11.3416 19.5956 10.5264C18.7719 9.71128 17.6548 9.25333 16.49 9.25333C15.3449 9.25333 14.0111 9.94667 13.3644 10.9867V9.50667H9.60569V20.6667H13.3644V14.0933C13.3644 13.0667 14.1997 12.2267 15.2371 12.2267C15.7373 12.2267 16.2171 12.4233 16.5708 12.7734C16.9245 13.1235 17.1232 13.5983 17.1232 14.0933V20.6667H20.8819ZM5.22722 7.41333C5.8275 7.41333 6.40318 7.17733 6.82764 6.75725C7.2521 6.33717 7.49056 5.76742 7.49056 5.17333C7.49056 3.93333 6.48014 2.92 5.22722 2.92C4.62338 2.92 4.04426 3.1574 3.61728 3.57999C3.19029 4.00257 2.95042 4.57571 2.95042 5.17333C2.95042 6.41333 3.97431 7.41333 5.22722 7.41333ZM7.09986 20.6667V9.50667H3.36806V20.6667H7.09986Z" fill="white"/>
</g>
</svg>
