 <svg xmlns="http://www.w3.org/2000/svg" fill="#FBBA00" xmlns:xlink="http://www.w3.org/1999/xlink" width="15px"
              height="17px" viewBox="0 0 15 16" version="1.1">
              <g id="surface1">
                <path style=" stroke:none;fill-rule:evenodd;fill-opacity:1;"
                  d="M 7.460938 1.421875 C 6.019531 1.421875 4.851562 2.535156 4.851562 3.910156 C 4.851562 5.285156 6.019531 6.398438 7.460938 6.398438 C 8.90625 6.398438 10.074219 5.285156 10.074219 3.910156 C 10.074219 2.535156 8.90625 1.421875 7.460938 1.421875 Z M 3.359375 3.910156 C 3.359375 1.75 5.195312 0 7.460938 0 C 9.730469 0 11.566406 1.75 11.566406 3.910156 C 11.566406 6.070312 9.730469 7.824219 7.460938 7.824219 C 5.195312 7.824219 3.359375 6.070312 3.359375 3.910156 Z M 7.460938 11.023438 C 5.558594 11.023438 3.746094 11.722656 2.617188 12.28125 C 2.09375 12.5625 1.75 13.074219 1.703125 13.644531 L 1.585938 14.578125 L 13.339844 14.578125 L 13.222656 13.644531 C 13.175781 13.074219 12.832031 12.5625 12.308594 12.28125 C 11.175781 11.722656 9.367188 11.023438 7.460938 11.023438 Z M 1.933594 11.015625 C 3.148438 10.417969 5.210938 9.601562 7.460938 9.601562 C 9.714844 9.601562 11.773438 10.417969 12.992188 11.015625 C 13.957031 11.515625 14.597656 12.4375 14.703125 13.476562 L 14.921875 15.207031 C 14.945312 15.40625 14.878906 15.609375 14.738281 15.761719 C 14.59375 15.914062 14.390625 16 14.179688 16 L 0.746094 16 C 0.53125 16 0.328125 15.914062 0.1875 15.761719 C 0.046875 15.609375 -0.0195312 15.40625 0.00390625 15.207031 L 0.21875 13.476562 C 0.324219 12.4375 0.96875 11.515625 1.933594 11.015625 Z M 1.933594 11.015625 " />
              </g>
            </svg>