<svg xmlns="http://www.w3.org/2000/svg" width="49" height="16" viewBox="0 0 49 16"><g fill="#980F2F" transform="translate(0 .07)"><path d="M0.0299657846,9.24137673 C0.00296578463,9.19737673 -0.00603421537,9.14637673 0.00396578463,9.09637673 L1.41696578,0.281376727 C1.42096578,0.204376727 1.45596578,0.131376727 1.51296578,0.0783767268 C1.57096578,0.0263767268 1.64696578,-0.00162327325 1.72496578,0.00137672675 L4.11296578,0.00137672675 C4.29296578,0.00137672675 4.38696578,0.0873767268 4.39596578,0.256376727 L4.67896578,4.56137673 C4.68696578,4.67137673 4.69096578,4.82837673 4.69096578,5.03137673 C4.71696578,5.46237673 4.73096578,5.83937673 4.73096578,6.16137673 C4.73096578,6.33137673 4.72096578,6.64437673 4.70396578,7.10237673 L4.74296578,7.10237673 C4.85296578,6.65337673 4.96696578,6.24737673 5.08296578,5.88337673 C5.19896578,5.51937673 5.36296578,5.07337673 5.57796578,4.54737673 L7.27396578,0.267376727 C7.34196578,0.0893767268 7.46196578,0.000376726752 7.63396578,0.000376726752 L10.0239658,0.000376726752 C10.0979658,-0.00362327325 10.1699658,0.0243767268 10.2229658,0.0773767268 C10.2709658,0.132376727 10.2879658,0.209376727 10.2669658,0.279376727 L8.85396578,9.09237673 C8.82796578,9.22937673 8.75096578,9.29637673 8.62296578,9.29637673 L7.13296578,9.29637673 C7.07996578,9.30237673 7.02696578,9.28137673 6.99296578,9.23937673 C6.96596578,9.19637673 6.95696578,9.14437673 6.96696578,9.09537673 L7.67396578,4.76437673 C7.74196578,4.29837673 7.93396578,3.37137673 8.25196578,1.98337673 L8.19996578,1.98337673 L5.47596578,9.03137673 C5.43296578,9.19737673 5.27596578,9.30937673 5.10396578,9.29737673 L3.68996578,9.29737673 C3.50996578,9.29737673 3.41196578,9.20937673 3.39696578,9.03137673 L2.90596578,1.98337673 L2.86696578,1.98337673 C2.85096578,2.35637673 2.81396578,2.81937673 2.75796578,3.37337673 C2.70196578,3.92837673 2.64396578,4.39237673 2.58496578,4.76337673 L1.87796578,9.09337673 C1.87096578,9.21337673 1.76796578,9.30337673 1.64696578,9.29737673 L0.157965785,9.29737673 C0.107965785,9.30237673 0.0599657846,9.28037673 0.0289657846,9.24137673 L0.0299657846,9.24137673 Z"/><path d="M18.0029658,0.154376727 C18.0019658,0.199376727 17.9889658,0.243376727 17.9639658,0.281376727 L14.3019658,5.47537673 L13.7239658,9.09537673 C13.6989658,9.23137673 13.6219658,9.29937673 13.4929658,9.29937673 L11.7849658,9.29937673 C11.7309658,9.30537673 11.6779658,9.28437673 11.6439658,9.24237673 C11.6169658,9.19937673 11.6079658,9.14737673 11.6179658,9.09837673 L12.1959658,5.50437673 L10.2039658,0.269376727 C10.1949658,0.239376727 10.1909658,0.209376727 10.1919658,0.179376727 C10.1899658,0.133376727 10.2059658,0.0883767268 10.2369658,0.0533767268 C10.2709658,0.0173767268 10.3209658,-0.00162327325 10.3709658,0.00137672675 L12.1709658,0.00137672675 C12.2229658,-0.00162327325 12.2769658,0.00937672675 12.3239658,0.0333767268 C12.3669658,0.0673767268 12.3989658,0.113376727 12.4139658,0.166376727 L13.5319658,3.48237673 L15.7419658,0.166376727 C15.7719658,0.110376727 15.8189658,0.0643767268 15.8759658,0.0333767268 C15.9359658,0.0103767268 15.9989658,-0.000623273248 16.0629658,0.00137672675 L17.8609658,0.00137672675 C17.9559658,0.00137672675 18.0029658,0.0533767268 18.0029658,0.154376727 L18.0029658,0.154376727 Z M43.1079658,7.26037673 C44.3169658,7.26037673 44.9759658,6.78237673 45.2179658,5.52237673 C45.2839658,5.18537673 45.3279658,4.84437673 45.3499658,4.50237673 C45.3499658,3.76237673 44.8439658,3.28537673 43.9429658,3.28537673 L38.4929658,3.28537673 C38.2949658,3.28537673 38.1629658,3.15537673 38.2069658,2.93737673 L38.6239658,0.352376727 C38.6439658,0.142376727 38.8299658,-0.0116232732 39.0419658,0.00437672675 L44.3609658,0.00437672675 C47.3499658,0.00437672675 48.9989658,1.63437673 48.9989658,3.98037673 C48.9989658,4.41437673 48.9549658,4.93637673 48.8449658,5.74037673 C48.5809658,7.60837673 47.5699658,9.21537673 45.7239658,9.93337673 L47.7239658,15.2993767 C47.7669658,15.3893767 47.7969658,15.4843767 47.8109658,15.5813767 C47.8109658,15.6713767 47.7739658,15.7583767 47.7069658,15.8213767 C47.6409658,15.8813767 47.5509658,15.9143767 47.4599658,15.9073767 L44.4699658,15.9073767 C44.1849658,15.9073767 44.1189658,15.7993767 44.0309658,15.5603767 L42.2949658,10.3473767 L40.6249658,10.3473767 L39.7889658,15.5603767 C39.7449658,15.7773767 39.6129658,15.9073767 39.3929658,15.9073767 L36.4699658,15.9073767 C36.2499658,15.9073767 36.1399658,15.7773767 36.1849658,15.5603767 L37.4599658,7.60837673 C37.4799658,7.39937673 37.6649658,7.24437673 37.8769658,7.26137673 L43.1079658,7.26037673 L43.1079658,7.26037673 Z M39.8769658,1.91637673 L44.1189658,1.91637673 C45.9219658,1.91637673 46.8439658,2.80637673 46.8439658,4.28437673 C46.8309658,4.72837673 46.7869658,5.17037673 46.7129658,5.60937673 C46.4479658,7.15337673 45.3499658,8.51937673 42.8889658,8.51937673 L39.0639658,8.51937673 C38.8879658,8.51937673 38.7779658,8.60737673 38.7559658,8.78037673 L37.8329658,14.5603767 L38.4489658,14.5603767 L39.3269658,9.08437673 L43.3059658,9.08437673 L45.2839658,14.5603767 L45.9209658,14.5603767 L43.8769658,9.02037673 C46.0089658,8.69437673 47.0869658,7.30337673 47.3269658,5.65237673 C47.4159658,5.04437673 47.4819658,4.47937673 47.4819658,4.19637673 C47.4819658,2.48037673 46.3389658,1.35037673 44.2069658,1.35037673 L39.9649658,1.35037673 L39.8769658,1.91637673 L39.8769658,1.91637673 Z M20.9419658,1.91337673 L17.1839658,10.5383767 L23.5999658,10.5383767 L22.4599658,1.91337673 L20.9429658,1.91337673 L20.9419658,1.91337673 Z M19.2939658,9.23537673 L21.4259658,4.28237673 L21.9969658,9.23537673 L19.2939658,9.23537673 L19.2939658,9.23537673 Z"/><path d="M37.1749658,0.00137672675 L31.9579658,0.00137672675 C28.0899658,0.00137672675 26.0899658,1.95637673 26.0899658,4.67337673 C26.0899658,6.91037673 27.8049658,8.19237673 29.8929658,9.25737673 C31.5409658,10.1043767 32.3099658,10.4953767 32.3099658,11.3433767 C32.3099658,12.1903767 31.3859658,12.6463767 30.0679658,12.6463767 L25.9439658,12.6463767 L24.3049658,0.371376727 C24.2609658,0.110376727 24.1509658,0.00137672675 23.8879658,0.00137672675 L20.0629658,0.00137672675 C19.7769658,0.00137672675 19.5789658,0.110376727 19.4699658,0.349376727 L12.7659658,15.4273767 C12.6559658,15.6873767 12.7659658,15.9043767 13.0739658,15.9043767 L16.0179658,15.9043767 C16.2609658,15.9043767 16.4149658,15.9703767 16.5899658,15.5573767 L17.9299658,12.4073767 L22.3699658,12.4073767 L22.7219658,15.5573767 C22.7439658,15.8173767 22.8979658,15.9043767 23.1179658,15.9043767 L29.6499658,15.9043767 C33.8049658,15.9043767 35.9149658,13.9053767 35.9149658,11.1043767 C35.9149658,9.12637673 34.8379658,7.90937673 32.6399658,6.78037673 C30.3319658,5.60637673 29.6949658,5.21637673 29.6949658,4.43437673 C29.6949658,3.69537673 30.3759658,3.26137673 31.5409658,3.26137673 L36.6469658,3.26137673 C36.8589658,3.27737673 37.0449658,3.12137673 37.0649658,2.91337673 L37.4819658,0.371376727 C37.5259658,0.131376727 37.3719658,0.00137672675 37.1749658,0.00137672675 L37.1749658,0.00137672675 Z M35.7449658,1.91337673 L31.7399658,1.91337673 C29.4099658,1.91337673 28.1799658,2.99937673 28.1799658,4.52037673 C28.1799658,5.88837673 29.2779658,6.69237673 31.4979658,7.82237673 C33.4539658,8.82237673 34.4209658,9.69037673 34.4429658,11.1903767 C34.4649658,13.2103767 32.8169658,14.5573767 29.8289658,14.5573767 L24.3349658,14.5573767 C24.2179658,14.5573767 24.1189658,14.4713767 24.1029658,14.3563767 L23.6699658,11.1043767 L16.9649658,11.1043767 L15.4269658,14.5583767 L14.7459658,14.5583767 L20.4589658,1.56637673 C20.5249658,1.43637673 20.6119658,1.34937673 20.8539658,1.34937673 L22.6999658,1.34937673 C22.8749658,1.34937673 22.9849658,1.43637673 23.0069658,1.63137673 L24.6669658,13.9933767 L29.8949658,13.9933767 C32.4009658,13.9933767 33.8289658,12.9283767 33.8289658,11.2343767 C33.8289658,9.93137673 32.8839658,9.21437673 31.0379658,8.23537673 C28.8839658,7.08537673 27.5649658,6.23737673 27.5649658,4.56437673 C27.5649658,2.67437673 29.0369658,1.34937673 31.8069658,1.34937673 L35.8349658,1.34937673 L35.7449658,1.91337673 L35.7449658,1.91337673 Z"/></g></svg>