<svg width="24" height="18" viewBox="0 0 24 18" fill="none" xmlns="http://www.w3.org/2000/svg">
<g clip-path="url(#clip0_739_3057)">
<path d="M15 1V3M15 8V10M15 15V17M1 3C1 1.89543 1.89543 1 3 1H21C22.1046 1 23 1.89543 23 3V6.17071C21.8348 6.58254 21 7.69378 21 9C21 10.3062 21.8348 11.4175 23 11.8293V15C23 16.1046 22.1046 17 21 17H3C1.89543 17 1 16.1046 1 15V11.8293C2.16519 11.4175 3 10.3062 3 9C3 7.69378 2.16519 6.58254 1 6.17071V3Z" stroke="#990A2C" stroke-width="2" stroke-linecap="round" stroke-linejoin="round"/>
</g>
<defs>
<clipPath id="clip0_739_3057">
<rect width="24" height="18" fill="white"/>
</clipPath>
</defs>
</svg>
