<svg width="21" height="24" viewBox="0 0 21 24" fill="none" xmlns="http://www.w3.org/2000/svg">
<g opacity="0.7">
<path d="M16.0326 3.76C15.1516 2.7195 14.6661 1.38324 14.6665 0H10.6841V16.5333C10.6534 17.428 10.2883 18.2755 9.66567 18.8973C9.04305 19.519 8.2115 19.8665 7.34614 19.8667C5.51605 19.8667 3.99527 18.32 3.99527 16.4C3.99527 14.1067 6.13467 12.3867 8.33852 13.0933V8.88C3.89217 8.26667 0 11.84 0 16.4C0 20.84 3.55708 24 7.33325 24C11.3801 24 14.6665 20.6 14.6665 16.4V8.01333C16.2814 9.21313 18.2202 9.85686 20.2083 9.85333V5.73333C20.2083 5.73333 17.7854 5.85333 16.0326 3.76Z" fill="white"/>
</g>
</svg>
