<svg width="26" height="20" viewBox="0 0 26 20" fill="none" xmlns="http://www.w3.org/2000/svg">
<g opacity="0.7">
<path d="M25.2604 2.35294C24.3307 2.76471 23.3285 3.03529 22.29 3.16471C23.3526 2.54118 24.1737 1.55294 24.5601 0.364706C23.5579 0.952941 22.447 1.36471 21.2757 1.6C20.3218 0.588235 18.9815 0 17.4601 0C14.6225 0 12.3042 2.25882 12.3042 5.04706C12.3042 5.44706 12.3525 5.83529 12.437 6.2C8.1384 5.98824 4.31069 3.97647 1.76292 0.929412C1.31615 1.67059 1.06258 2.54118 1.06258 3.45882C1.06258 5.21176 1.96819 6.76471 3.36886 7.64706C2.51155 7.64706 1.71462 7.41177 1.01428 7.05882V7.09412C1.01428 9.54118 2.80135 11.5882 5.168 12.0471C4.40817 12.2497 3.61047 12.2778 2.83757 12.1294C3.16553 13.1323 3.80782 14.0099 4.67416 14.6387C5.5405 15.2676 6.58733 15.6161 7.66748 15.6353C5.8365 17.0476 3.56688 17.811 1.23163 17.8C0.821084 17.8 0.410542 17.7765 0 17.7294C2.29421 19.1647 5.0231 20 7.9452 20C17.4601 20 22.6885 12.3059 22.6885 5.63529C22.6885 5.41177 22.6885 5.2 22.6764 4.97647C23.6907 4.27059 24.5601 3.37647 25.2604 2.35294Z" fill="white"/>
</g>
</svg>
