<svg width="16" height="13" viewBox="0 0 16 13" fill="none" xmlns="http://www.w3.org/2000/svg">
<path d="M9.55376 12.6502C9.34831 12.417 9.24969 12.1353 9.25791 11.8049C9.26612 11.4746 9.3733 11.1928 9.57945 10.9596L12.4815 7.66592H1.02729C0.736225 7.66592 0.492074 7.55399 0.294835 7.33013C0.0975959 7.10628 -0.000681303 6.82957 3.55462e-06 6.5C3.55462e-06 6.16966 0.0986231 5.89255 0.295862 5.6687C0.493101 5.44484 0.73691 5.3333 1.02729 5.33408H12.4815L9.55376 2.01121C9.34831 1.77803 9.24558 1.50093 9.24558 1.17991C9.24558 0.858893 9.34831 0.582182 9.55376 0.349775C9.75922 0.116592 10.0034 0 10.2862 0C10.5691 0 10.8129 0.116592 11.0176 0.349775L15.7175 5.68386C15.8202 5.80045 15.8931 5.92676 15.9363 6.06278C15.9794 6.1988 16.0007 6.34454 16 6.5C16 6.65546 15.9784 6.8012 15.9353 6.93722C15.8921 7.07324 15.8195 7.19955 15.7175 7.31614L10.992 12.6794C10.8036 12.8931 10.5684 13 10.2862 13C10.0041 13 9.75991 12.8834 9.55376 12.6502Z" fill="white"/>
</svg>
