<svg width="18" height="10" viewBox="0 0 18 10" fill="none" xmlns="http://www.w3.org/2000/svg">
<path d="M17.6438 1.98156L9.66491 9.74653C9.56992 9.8387 9.46702 9.90413 9.3562 9.94284C9.24538 9.98155 9.12665 10.0006 9 9.99999C8.87335 9.99999 8.75462 9.98094 8.6438 9.94284C8.53298 9.90475 8.43008 9.83931 8.33509 9.74653L0.332453 1.98156C0.110817 1.76651 -3.71648e-07 1.49769 -3.85748e-07 1.17511C-3.99848e-07 0.852534 0.118733 0.576037 0.3562 0.345623C0.593667 0.115209 0.870712 9.15614e-07 1.18733 9.01774e-07C1.50396 8.87934e-07 1.781 0.115209 2.01847 0.345623L9 7.1198L15.9815 0.345622C16.2032 0.130569 16.4764 0.023042 16.8013 0.0230419C17.1261 0.0230419 17.407 0.138249 17.6438 0.368663C17.8813 0.599077 18 0.867894 18 1.17511C18 1.48233 17.8813 1.75115 17.6438 1.98156Z" fill="white"/>
</svg>
