<svg width="27" height="18" viewBox="0 0 27 18" fill="none" xmlns="http://www.w3.org/2000/svg">
<g opacity="0.7">
<path d="M10.5083 12.8571L17.3256 9L10.5083 5.14286V12.8571ZM25.6929 2.79C25.8636 3.39429 25.9819 4.20429 26.0607 5.23286C26.1526 6.26143 26.192 7.14857 26.192 7.92L26.2708 9C26.2708 11.8157 26.0607 13.8857 25.6929 15.21C25.3645 16.3671 24.6026 17.1129 23.4204 17.4343C22.8031 17.6014 21.6734 17.7171 19.9396 17.7943C18.232 17.8843 16.6688 17.9229 15.2239 17.9229L13.1354 18C7.63168 18 4.20333 17.7943 2.85039 17.4343C1.6682 17.1129 0.906344 16.3671 0.577958 15.21C0.407198 14.6057 0.288979 13.7957 0.210167 12.7671C0.118219 11.7386 0.0788124 10.8514 0.0788124 10.08L0 9C0 6.18429 0.210167 4.11429 0.577958 2.79C0.906344 1.63286 1.6682 0.887143 2.85039 0.565714C3.46775 0.398571 4.5974 0.282857 6.33127 0.205714C8.03887 0.115714 9.60199 0.0771428 11.0469 0.0771428L13.1354 0C18.6392 0 22.0675 0.205714 23.4204 0.565714C24.6026 0.887143 25.3645 1.63286 25.6929 2.79Z" fill="white"/>
</g>
</svg>
